{
  "accessors": [
    {
      "bufferView": 2,
      "componentType": 5126,
      "count": 148,
      "max": [
        9.7709579467773438,
        93.822517395019531,
        9.7709579467773438
      ],
      "min": [
        -9.7709579467773438,
        -93.822517395019531,
        -9.7709579467773438
      ],
      "type": "VEC3"
    },
    {
      "bufferView": 2,
      "byteOffset": 1776,
      "componentType": 5126,
      "count": 148,
      "max": [
        0.99957501888275146,
        1,
        0.99957501888275146
      ],
      "min": [
        -0.99957501888275146,
        -1,
        -0.99957501888275146
      ],
      "type": "VEC3"
    },
    {
      "bufferView": 3,
      "componentType": 5126,
      "count": 148,
      "max": [
        1,
        0,
        0.99957501888275146,
        1
      ],
      "min": [
        -1,
        0,
        -0.99957507848739624,
        1
      ],
      "type": "VEC4"
    },
    {
      "bufferView": 1,
      "componentType": 5126,
      "count": 148,
      "max": [
        1,
        1
      ],
      "min": [
        0,
        0
      ],
      "type": "VEC2"
    },
    {
      "bufferView": 0,
      "componentType": 5125,
      "count": 432,
      "max": [
        147
      ],
      "min": [
        0
      ],
      "type": "SCALAR"
    },
    {
      "bufferView": 2,
      "byteOffset": 3552,
      "componentType": 5126,
      "count": 24,
      "max": [
        29.912521362304688,
        24.12660026550293,
        24.12660026550293
      ],
      "min": [
        -29.912521362304688,
        -20.097724914550781,
        -24.12660026550293
      ],
      "type": "VEC3"
    },
    {
      "bufferView": 2,
      "byteOffset": 3840,
      "componentType": 5126,
      "count": 24,
      "max": [
        0.99698913097381592,
        0.99794816970825195,
        0.99781835079193115
      ],
      "min": [
        -0.99698913097381592,
        -0.99794816970825195,
        -0.99781835079193115
      ],
      "type": "VEC3"
    },
    {
      "bufferView": 0,
      "byteOffset": 1728,
      "componentType": 5125,
      "count": 132,
      "max": [
        23
      ],
      "min": [
        0
      ],
      "type": "SCALAR"
    },
    {
      "bufferView": 2,
      "byteOffset": 4128,
      "componentType": 5126,
      "count": 285,
      "max": [
        73.668159484863281,
        112.07070922851562,
        29.191135406494141
      ],
      "min": [
        -73.668159484863281,
        -117.92666625976562,
        -29.191135406494141
      ],
      "type": "VEC3"
    },
    {
      "bufferView": 2,
      "byteOffset": 7548,
      "componentType": 5126,
      "count": 285,
      "max": [
        1,
        1,
        1
      ],
      "min": [
        -1,
        -1,
        -1
      ],
      "type": "VEC3"
    },
    {
      "bufferView": 3,
      "byteOffset": 2368,
      "componentType": 5126,
      "count": 285,
      "max": [
        1,
        0.90311545133590698,
        0.99999171495437622,
        1
      ],
      "min": [
        -1,
        -0.91450220346450806,
        -0.99999839067459106,
        -1
      ],
      "type": "VEC4"
    },
    {
      "bufferView": 1,
      "byteOffset": 1184,
      "componentType": 5126,
      "count": 285,
      "max": [
        1.4636131525039673,
        0.81357145309448242
      ],
      "min": [
        0.03578370064496994,
        0.077664613723754883
      ],
      "type": "VEC2"
    },
    {
      "bufferView": 0,
      "byteOffset": 2256,
      "componentType": 5125,
      "count": 732,
      "max": [
        284
      ],
      "min": [
        0
      ],
      "type": "SCALAR"
    },
    {
      "bufferView": 4,
      "componentType": 5126,
      "count": 186,
      "max": [
        13.733333587646484
      ],
      "min": [
        0
      ],
      "type": "SCALAR"
    },
    {
      "bufferView": 5,
      "componentType": 5126,
      "count": 186,
      "max": [
        -6.6635050773620605,
        1165.8956298828125,
        -3.7113528251647949
      ],
      "min": [
        -6.6635050773620605,
        804.4541015625,
        -3.7113528251647949
      ],
      "type": "VEC3"
    },
    {
      "bufferView": 4,
      "byteOffset": 744,
      "componentType": 5126,
      "count": 196,
      "max": [
        13.733333587646484
      ],
      "min": [
        0
      ],
      "type": "SCALAR"
    },
    {
      "bufferView": 6,
      "componentType": 5126,
      "count": 196,
      "max": [
        2.5410249958702601e-32,
        5.5511151231257827e-17,
        1.6755540557659042e-32,
        1
      ],
      "min": [
        -2.4510441359242788e-32,
        -2.7755575615628914e-17,
        -1.3759023255788654e-32,
        1
      ],
      "type": "VEC4"
    },
    {
      "bufferView": 4,
      "byteOffset": 1528,
      "componentType": 5126,
      "count": 415,
      "max": [
        17.033332824707031
      ],
      "min": [
        0
      ],
      "type": "SCALAR"
    },
    {
      "bufferView": 6,
      "byteOffset": 3136,
      "componentType": 5126,
      "count": 415,
      "max": [
        8.3451168271151364e-17,
        0.99999964237213135,
        8.3451168271151364e-17,
        1
      ],
      "min": [
        -8.6587327610695113e-17,
        -0.86505216360092163,
        -8.6587327610695113e-17,
        -0.49261176586151123
      ],
      "type": "VEC4"
    },
    {
      "bufferView": 4,
      "byteOffset": 3188,
      "componentType": 5126,
      "count": 238,
      "max": [
        20
      ],
      "min": [
        0
      ],
      "type": "SCALAR"
    },
    {
      "bufferView": 5,
      "byteOffset": 2232,
      "componentType": 5126,
      "count": 238,
      "max": [
        23.155622482299805,
        112.54869079589844,
        6.1497197151184082
      ],
      "min": [
        23.155622482299805,
        -414.35137939453125,
        6.1497197151184082
      ],
      "type": "VEC3"
    }
  ],
  "animations": [
    {
      "channels": [
        {
          "sampler": 0,
          "target": {
            "node": 7,
            "path": "translation"
          }
        },
        {
          "sampler": 1,
          "target": {
            "node": 7,
            "path": "rotation"
          }
        },
        {
          "sampler": 2,
          "target": {
            "node": 6,
            "path": "rotation"
          }
        },
        {
          "sampler": 3,
          "target": {
            "node": 5,
            "path": "translation"
          }
        }
      ],
      "name": "CINEMA_4D_Main",
      "samplers": [
        {
          "input": 13,
          "interpolation": "LINEAR",
          "output": 14
        },
        {
          "input": 15,
          "interpolation": "LINEAR",
          "output": 16
        },
        {
          "input": 17,
          "interpolation": "LINEAR",
          "output": 18
        },
        {
          "input": 19,
          "interpolation": "LINEAR",
          "output": 20
        }
      ]
    }
  ],
  "asset": {
    "extras": {
      "author": "Liam.Gathercole (https://sketchfab.com/Liam.Gathercole)",
      "license": "CC-BY-4.0 (http://creativecommons.org/licenses/by/4.0/)",
      "source": "https://sketchfab.com/3d-models/device-transparent-material-d3e85887323a4eeab54b2f57f66c09fc",
      "title": "Device Transparent Material"
    },
    "generator": "Sketchfab-5.97.0",
    "version": "2.0"
  },
  "bufferViews": [
    {
      "buffer": 0,
      "byteLength": 5184,
      "byteOffset": 0,
      "name": "floatBufferViews",
      "target": 34963
    },
    {
      "buffer": 0,
      "byteLength": 3464,
      "byteOffset": 5184,
      "byteStride": 8,
      "name": "floatBufferViews",
      "target": 34962
    },
    {
      "buffer": 0,
      "byteLength": 10968,
      "byteOffset": 8648,
      "byteStride": 12,
      "name": "floatBufferViews",
      "target": 34962
    },
    {
      "buffer": 0,
      "byteLength": 6928,
      "byteOffset": 19616,
      "byteStride": 16,
      "name": "floatBufferViews",
      "target": 34962
    },
    {
      "buffer": 0,
      "byteLength": 4140,
      "byteOffset": 26544,
      "name": "floatBufferViews"
    },
    {
      "buffer": 0,
      "byteLength": 5088,
      "byteOffset": 30684,
      "byteStride": 12,
      "name": "floatBufferViews"
    },
    {
      "buffer": 0,
      "byteLength": 9776,
      "byteOffset": 35772,
      "byteStride": 16,
      "name": "floatBufferViews"
    }
  ],
  "buffers": [
    {
      "byteLength": 45548,
      "uri": "scene.bin"
    }
  ],
  "materials": [
    {
      "alphaMode": "BLEND",
      "doubleSided": true,
      "emissiveFactor": [
        0,
        0,
        0
      ],
      "name": "transparent",
      "pbrMetallicRoughness": {
        "baseColorFactor": [
          1,
          1,
          1,
          0.12976371951219512
        ],
        "metallicFactor": 0,
        "roughnessFactor": 0.59999999999999998
      }
    }
  ],
  "meshes": [
    {
      "name": "Cylinder_transparent_0",
      "primitives": [
        {
          "attributes": {
            "NORMAL": 1,
            "POSITION": 0,
            "TANGENT": 2,
            "TEXCOORD_0": 3
          },
          "indices": 4,
          "material": 0,
          "mode": 4
        }
      ]
    },
    {
      "name": "Cube_2_transparent_0",
      "primitives": [
        {
          "attributes": {
            "NORMAL": 6,
            "POSITION": 5
          },
          "indices": 7,
          "material": 0,
          "mode": 4
        }
      ]
    },
    {
      "name": "Cube_1_2_transparent_0",
      "primitives": [
        {
          "attributes": {
            "NORMAL": 9,
            "POSITION": 8,
            "TANGENT": 10,
            "TEXCOORD_0": 11
          },
          "indices": 12,
          "material": 0,
          "mode": 4
        }
      ]
    }
  ],
  "nodes": [
    {
      "children": [
        1
      ],
      "name": "RootNode (gltf orientation matrix)",
      "rotation": [
        -0.70710678118654746,
        -0,
        -0,
        0.70710678118654757
      ]
    },
    {
      "children": [
        2
      ],
      "matrix": [
        0.99999958276748657,
        -9.6567494552489825e-20,
        -0.00089971080888062716,
        0,
        -4.1476099302547512e-20,
        1,
        -1.5343105837472133e-16,
        0,
        0.00089971080888062716,
        1.5343103190494173e-16,
        0.99999958276748657,
        0,
        0.04426923394203186,
        8.4376949871511897e-15,
        -37.605693817138672,
        1
      ],
      "name": "RootNode (model correction matrix)"
    },
    {
      "children": [
        3
      ],
      "matrix": [
        1,
        0,
        0,
        0,
        0,
        0,
        1,
        0,
        0,
        -1,
        0,
        0,
        0,
        0,
        0,
        1
      ],
      "name": "a45927783832495ca9b5ced1000f13b4.fbx"
    },
    {
      "children": [
        4
      ],
      "name": ""
    },
    {
      "children": [
        5
      ],
      "name": "RootNode"
    },
    {
      "children": [
        6
      ],
      "name": "All",
      "scale": [
        0.5,
        0.5,
        0.5
      ],
      "translation": [
        23.155622482299805,
        -412.3504638671875,
        6.1497197151184082
      ]
    },
    {
      "children": [
        7
      ],
      "name": "juul",
      "translation": [
        -43.111892700195312,
        -129.395263671875,
        -7.9879999160766602
      ]
    },
    {
      "children": [
        8
      ],
      "name": "Pod",
      "translation": [
        -6.6635050773620605,
        804.4541015625,
        -3.7113528251647949
      ]
    },
    {
      "children": [
        9,
        11,
        14
      ],
      "name": "glass",
      "rotation": [
        0,
        -3.2862601528904634e-14,
        0,
        1
      ],
      "translation": [
        4.4285345077514648,
        -64.517852783203125,
        3.8471786975860596
      ]
    },
    {
      "children": [
        10
      ],
      "name": "Cylinder",
      "translation": [
        0.15596458315849304,
        64.385704040527344,
        -0.018152398988604546
      ]
    },
    {
      "mesh": 0,
      "name": "Cylinder_transparent_0"
    },
    {
      "children": [
        12
      ],
      "name": "Cube",
      "translation": [
        0.15596458315849304,
        -52.591892242431641,
        -0.018152398988604546
      ]
    },
    {
      "children": [
        13
      ],
      "name": "Cube_2"
    },
    {
      "mesh": 1,
      "name": "Cube_2_transparent_0"
    },
    {
      "children": [
        15
      ],
      "name": "Cube_1",
      "translation": [
        -0.46789374947547913,
        40.798084259033203,
        0.054457198828458786
      ]
    },
    {
      "children": [
        16
      ],
      "name": "Cube_1_2"
    },
    {
      "mesh": 2,
      "name": "Cube_1_2_transparent_0"
    }
  ],
  "scene": 0,
  "scenes": [
    {
      "name": "OSG_Scene",
      "nodes": [
        0
      ]
    }
  ]
}

