{
  "accessors": [
    {
      "bufferView": 2,
      "componentType": 5126,
      "count": 1057,
      "max": [
        0.87976664304733276,
        10.26264476776123,
        0.28346237540245056
      ],
      "min": [
        -0.87976664304733276,
        9.2506411419890355e-08,
        -0.2799689769744873
      ],
      "type": "VEC3"
    },
    {
      "bufferView": 2,
      "byteOffset": 12684,
      "componentType": 5126,
      "count": 1057,
      "max": [
        1,
        1,
        1
      ],
      "min": [
        -1,
        -1,
        -1
      ],
      "type": "VEC3"
    },
    {
      "bufferView": 3,
      "componentType": 5126,
      "count": 1057,
      "max": [
        1,
        1,
        1,
        1
      ],
      "min": [
        -1,
        -1,
        -1,
        -1
      ],
      "type": "VEC4"
    },
    {
      "bufferView": 1,
      "componentType": 5126,
      "count": 1057,
      "max": [
        0.81469225883483887,
        0.80575281381607056
      ],
      "min": [
        0.0043990164995193481,
        0.0049574971199035645
      ],
      "type": "VEC2"
    },
    {
      "bufferView": 0,
      "componentType": 5125,
      "count": 4476,
      "max": [
        1056
      ],
      "min": [
        0
      ],
      "type": "SCALAR"
    },
    {
      "bufferView": 2,
      "byteOffset": 25368,
      "componentType": 5126,
      "count": 1392,
      "max": [
        0.87976664304733276,
        12.073955535888672,
        0.27996918559074402
      ],
      "min": [
        -0.87976664304733276,
        0.008480132557451725,
        -0.27996918559074402
      ],
      "type": "VEC3"
    },
    {
      "bufferView": 2,
      "byteOffset": 42072,
      "componentType": 5126,
      "count": 1392,
      "max": [
        1,
        1,
        1
      ],
      "min": [
        -1,
        -1,
        -1
      ],
      "type": "VEC3"
    },
    {
      "bufferView": 3,
      "byteOffset": 16912,
      "componentType": 5126,
      "count": 1392,
      "max": [
        1,
        1,
        1,
        1
      ],
      "min": [
        -1,
        -1,
        -1,
        1
      ],
      "type": "VEC4"
    },
    {
      "bufferView": 1,
      "byteOffset": 8456,
      "componentType": 5126,
      "count": 1392,
      "max": [
        0.96155792474746704,
        0.99535685777664185
      ],
      "min": [
        0.0043975710868835449,
        0.67438966035842896
      ],
      "type": "VEC2"
    },
    {
      "bufferView": 0,
      "byteOffset": 17904,
      "componentType": 5125,
      "count": 5040,
      "max": [
        1391
      ],
      "min": [
        0
      ],
      "type": "SCALAR"
    },
    {
      "bufferView": 2,
      "byteOffset": 58776,
      "componentType": 5126,
      "count": 122,
      "max": [
        0.76340454816818237,
        11.337845802307129,
        0.16374526917934418
      ],
      "min": [
        -0.76340454816818237,
        0.029579734429717064,
        -0.16374526917934418
      ],
      "type": "VEC3"
    },
    {
      "bufferView": 2,
      "byteOffset": 60240,
      "componentType": 5126,
      "count": 122,
      "max": [
        1,
        0,
        1
      ],
      "min": [
        -1,
        -1,
        -1
      ],
      "type": "VEC3"
    },
    {
      "bufferView": 3,
      "byteOffset": 39184,
      "componentType": 5126,
      "count": 122,
      "max": [
        7.2787105409588548e-07,
        1,
        5.18339084010222e-06,
        1
      ],
      "min": [
        -1,
        -5.603163231171493e-07,
        -5.18339084010222e-06,
        1
      ],
      "type": "VEC4"
    },
    {
      "bufferView": 1,
      "byteOffset": 19592,
      "componentType": 5126,
      "count": 122,
      "max": [
        0.69890004396438599,
        0.62835490703582764
      ],
      "min": [
        0.38384637236595154,
        0.57164525985717773
      ],
      "type": "VEC2"
    },
    {
      "bufferView": 0,
      "byteOffset": 38064,
      "componentType": 5125,
      "count": 216,
      "max": [
        121
      ],
      "min": [
        0
      ],
      "type": "SCALAR"
    },
    {
      "bufferView": 2,
      "byteOffset": 61704,
      "componentType": 5126,
      "count": 80,
      "max": [
        0.86922353506088257,
        10.634593963623047,
        0.25086906552314758
      ],
      "min": [
        -0.86922353506088257,
        9.9261960983276367,
        -0.25086906552314758
      ],
      "type": "VEC3"
    },
    {
      "bufferView": 2,
      "byteOffset": 62664,
      "componentType": 5126,
      "count": 80,
      "max": [
        1,
        0.17647220194339752,
        1
      ],
      "min": [
        -1,
        -9.4404213086818345e-06,
        -1
      ],
      "type": "VEC3"
    },
    {
      "bufferView": 3,
      "byteOffset": 41136,
      "componentType": 5126,
      "count": 80,
      "max": [
        0.17647221684455872,
        1,
        1.4856596862955485e-05,
        1
      ],
      "min": [
        -0.17647190392017365,
        -1,
        -3.1192397727863863e-05,
        1
      ],
      "type": "VEC4"
    },
    {
      "bufferView": 1,
      "byteOffset": 20568,
      "componentType": 5126,
      "count": 80,
      "max": [
        0.93692976236343384,
        0.80665576457977295
      ],
      "min": [
        0.74526107311248779,
        0.67408919334411621
      ],
      "type": "VEC2"
    },
    {
      "bufferView": 0,
      "byteOffset": 38928,
      "componentType": 5125,
      "count": 204,
      "max": [
        79
      ],
      "min": [
        0
      ],
      "type": "SCALAR"
    }
  ],
  "asset": {
    "extras": {
      "author": "CDB (https://sketchfab.com/CDB)",
      "license": "CC-BY-4.0 (http://creativecommons.org/licenses/by/4.0/)",
      "source": "https://sketchfab.com/models/1301e228b8984911ad8126bdb3129b12",
      "title": "C JUUL"
    },
    "generator": "Sketchfab-3.54.8-rc1",
    "version": "2.0"
  },
  "bufferViews": [
    {
      "buffer": 0,
      "byteLength": 39744,
      "byteOffset": 0,
      "name": "floatBufferViews",
      "target": 34963
    },
    {
      "buffer": 0,
      "byteLength": 21208,
      "byteOffset": 39744,
      "byteStride": 8,
      "name": "floatBufferViews",
      "target": 34962
    },
    {
      "buffer": 0,
      "byteLength": 63624,
      "byteOffset": 60952,
      "byteStride": 12,
      "name": "floatBufferViews",
      "target": 34962
    },
    {
      "buffer": 0,
      "byteLength": 42416,
      "byteOffset": 124576,
      "byteStride": 16,
      "name": "floatBufferViews",
      "target": 34962
    }
  ],
  "buffers": [
    {
      "byteLength": 166992,
      "uri": "scene.bin"
    }
  ],
  "images": [
    {
      "uri": "textures/MAT_JUUL_Sub_baseColor.png"
    },
    {
      "uri": "textures/MAT_JUUL_Inner_baseColor.png"
    },
    {
      "uri": "textures/MAT_JUUL_Glass_baseColor.png"
    },
    {
      "uri": "textures/MAT_JUUL_Main_metallicRoughness.png"
    },
    {
      "uri": "textures/MAT_JUUL_Main_baseColor.png"
    },
    {
      "uri": "textures/MAT_JUUL_Main_normal.png"
    },
    {
      "uri": "textures/MAT_JUUL_Main_emissive.png"
    }
  ],
  "materials": [
    {
      "doubleSided": true,
      "emissiveFactor": [
        1,
        1,
        1
      ],
      "emissiveTexture": {
        "index": 6,
        "texCoord": 0
      },
      "name": "MAT_JUUL_Main",
      "normalTexture": {
        "index": 5,
        "scale": 1,
        "texCoord": 0
      },
      "pbrMetallicRoughness": {
        "baseColorFactor": [
          0.94999999999999996,
          0.94999999999999996,
          0.94999999999999996,
          1
        ],
        "baseColorTexture": {
          "index": 4,
          "texCoord": 0
        },
        "metallicFactor": 1,
        "metallicRoughnessTexture": {
          "index": 3,
          "texCoord": 0
        },
        "roughnessFactor": 0.17499999999999999
      }
    },
    {
      "doubleSided": true,
      "emissiveFactor": [
        0,
        0,
        0
      ],
      "name": "MAT_JUUL_Sub",
      "pbrMetallicRoughness": {
        "baseColorFactor": [
          1,
          1,
          1,
          1
        ],
        "baseColorTexture": {
          "index": 0,
          "texCoord": 0
        },
        "metallicFactor": 0.90000000000000002,
        "roughnessFactor": 0.59999999999999998
      }
    },
    {
      "doubleSided": true,
      "emissiveFactor": [
        0,
        0,
        0
      ],
      "name": "MAT_JUUL_Inner",
      "pbrMetallicRoughness": {
        "baseColorFactor": [
          0.14999999999999999,
          0.14999999999999999,
          0.14999999999999999,
          1
        ],
        "baseColorTexture": {
          "index": 1,
          "texCoord": 0
        },
        "metallicFactor": 1,
        "roughnessFactor": 0.20000000000000001
      }
    },
    {
      "alphaMode": "BLEND",
      "doubleSided": true,
      "emissiveFactor": [
        0,
        0,
        0
      ],
      "name": "MAT_JUUL_Glass",
      "pbrMetallicRoughness": {
        "baseColorFactor": [
          1,
          1,
          1,
          0.050000000000000003
        ],
        "baseColorTexture": {
          "index": 2,
          "texCoord": 0
        },
        "metallicFactor": 1,
        "roughnessFactor": 0.59999999999999998
      }
    }
  ],
  "meshes": [
    {
      "name": "C_JUUL_MAT_JUUL_Main_0",
      "primitives": [
        {
          "attributes": {
            "NORMAL": 1,
            "POSITION": 0,
            "TANGENT": 2,
            "TEXCOORD_0": 3
          },
          "indices": 4,
          "material": 0,
          "mode": 4
        }
      ]
    },
    {
      "name": "C_JUUL_MAT_JUUL_Sub_0",
      "primitives": [
        {
          "attributes": {
            "NORMAL": 6,
            "POSITION": 5,
            "TANGENT": 7,
            "TEXCOORD_0": 8
          },
          "indices": 9,
          "material": 1,
          "mode": 4
        }
      ]
    },
    {
      "name": "C_JUUL_MAT_JUUL_Inner_0",
      "primitives": [
        {
          "attributes": {
            "NORMAL": 11,
            "POSITION": 10,
            "TANGENT": 12,
            "TEXCOORD_0": 13
          },
          "indices": 14,
          "material": 2,
          "mode": 4
        }
      ]
    },
    {
      "name": "C_JUUL_MAT_JUUL_Glass_0",
      "primitives": [
        {
          "attributes": {
            "NORMAL": 16,
            "POSITION": 15,
            "TANGENT": 17,
            "TEXCOORD_0": 18
          },
          "indices": 19,
          "material": 3,
          "mode": 4
        }
      ]
    }
  ],
  "nodes": [
    {
      "children": [
        1
      ],
      "name": "RootNode (gltf orientation matrix)",
      "rotation": [
        -0.70710678118654746,
        -0,
        -0,
        0.70710678118654757
      ]
    },
    {
      "children": [
        2
      ],
      "name": "RootNode (model correction matrix)"
    },
    {
      "children": [
        3
      ],
      "matrix": [
        1,
        0,
        0,
        0,
        0,
        0,
        1,
        0,
        0,
        -1,
        0,
        0,
        0,
        0,
        0,
        1
      ],
      "name": "2105e76b28f3450ba8c7a60430388629.fbx"
    },
    {
      "children": [
        4
      ],
      "name": "RootNode"
    },
    {
      "children": [
        5,
        6,
        7,
        8
      ],
      "name": "C_JUUL"
    },
    {
      "mesh": 0,
      "name": "C_JUUL_MAT_JUUL_Main_0"
    },
    {
      "mesh": 1,
      "name": "C_JUUL_MAT_JUUL_Sub_0"
    },
    {
      "mesh": 2,
      "name": "C_JUUL_MAT_JUUL_Inner_0"
    },
    {
      "mesh": 3,
      "name": "C_JUUL_MAT_JUUL_Glass_0"
    }
  ],
  "samplers": [
    {
      "magFilter": 9729,
      "minFilter": 9987,
      "wrapS": 10497,
      "wrapT": 10497
    }
  ],
  "scene": 0,
  "scenes": [
    {
      "name": "OSG_Scene",
      "nodes": [
        0
      ]
    }
  ],
  "textures": [
    {
      "sampler": 0,
      "source": 0
    },
    {
      "sampler": 0,
      "source": 1
    },
    {
      "sampler": 0,
      "source": 2
    },
    {
      "sampler": 0,
      "source": 3
    },
    {
      "sampler": 0,
      "source": 4
    },
    {
      "sampler": 0,
      "source": 5
    },
    {
      "sampler": 0,
      "source": 6
    }
  ]
}

