{
  "accessors": [
    {
      "bufferView": 2,
      "componentType": 5126,
      "count": 4,
      "max": [
        100,
        -7.931155732165962e-15,
        -3.199523979091623e-14
      ],
      "min": [
        -100,
        -4.401340403248355e-14,
        -200
      ],
      "type": "VEC3"
    },
    {
      "bufferView": 2,
      "byteOffset": 48,
      "componentType": 5126,
      "count": 4,
      "max": [
        -6.9388939039072284e-17,
        1,
        -1.1102230246251565e-16
      ],
      "min": [
        -6.9388939039072284e-17,
        1,
        -1.1102230246251565e-16
      ],
      "type": "VEC3"
    },
    {
      "bufferView": 3,
      "componentType": 5126,
      "count": 4,
      "max": [
        1,
        6.9388939039072284e-17,
        0,
        1
      ],
      "min": [
        1,
        6.9388939039072284e-17,
        -5.5511151231257827e-17,
        1
      ],
      "type": "VEC4"
    },
    {
      "bufferView": 1,
      "componentType": 5126,
      "count": 4,
      "max": [
        1,
        1
      ],
      "min": [
        0,
        0
      ],
      "type": "VEC2"
    },
    {
      "bufferView": 0,
      "componentType": 5125,
      "count": 6,
      "max": [
        3
      ],
      "min": [
        0
      ],
      "type": "SCALAR"
    },
    {
      "bufferView": 2,
      "byteOffset": 96,
      "componentType": 5126,
      "count": 4,
      "max": [
        100,
        -8.659739592076221e-15,
        -5.7968752953212188e-14
      ],
      "min": [
        -100,
        -5.3068660577082483e-14,
        -200
      ],
      "type": "VEC3"
    },
    {
      "bufferView": 2,
      "byteOffset": 144,
      "componentType": 5126,
      "count": 4,
      "max": [
        5.5511151231257827e-17,
        1,
        1.6653345369377348e-16
      ],
      "min": [
        5.5511151231257827e-17,
        1,
        1.6653345369377348e-16
      ],
      "type": "VEC3"
    },
    {
      "bufferView": 3,
      "byteOffset": 64,
      "componentType": 5126,
      "count": 4,
      "max": [
        1,
        -5.5511151231257827e-17,
        0,
        1
      ],
      "min": [
        1,
        -5.5511151231257827e-17,
        -6.9388939039072284e-17,
        1
      ],
      "type": "VEC4"
    },
    {
      "bufferView": 1,
      "byteOffset": 32,
      "componentType": 5126,
      "count": 4,
      "max": [
        1,
        1
      ],
      "min": [
        0,
        0
      ],
      "type": "VEC2"
    },
    {
      "bufferView": 0,
      "byteOffset": 24,
      "componentType": 5125,
      "count": 6,
      "max": [
        3
      ],
      "min": [
        0
      ],
      "type": "SCALAR"
    },
    {
      "bufferView": 2,
      "byteOffset": 192,
      "componentType": 5126,
      "count": 4,
      "max": [
        100,
        4.9341366631589292e-14,
        -3.1460944960315373e-14
      ],
      "min": [
        -100,
        -3.3231470824906725e-14,
        -200
      ],
      "type": "VEC3"
    },
    {
      "bufferView": 2,
      "byteOffset": 240,
      "componentType": 5126,
      "count": 4,
      "max": [
        5.5511151231257827e-17,
        1,
        3.5735303605122226e-16
      ],
      "min": [
        5.5511137996368026e-17,
        1,
        3.5735303605122226e-16
      ],
      "type": "VEC3"
    },
    {
      "bufferView": 3,
      "byteOffset": 128,
      "componentType": 5126,
      "count": 4,
      "max": [
        1,
        -5.5511137996368026e-17,
        1.88079056895209e-39,
        1
      ],
      "min": [
        1,
        -5.5511151231257827e-17,
        0,
        1
      ],
      "type": "VEC4"
    },
    {
      "bufferView": 1,
      "byteOffset": 64,
      "componentType": 5126,
      "count": 4,
      "max": [
        1,
        1
      ],
      "min": [
        0,
        0
      ],
      "type": "VEC2"
    },
    {
      "bufferView": 0,
      "byteOffset": 48,
      "componentType": 5125,
      "count": 6,
      "max": [
        3
      ],
      "min": [
        0
      ],
      "type": "SCALAR"
    },
    {
      "bufferView": 2,
      "byteOffset": 288,
      "componentType": 5126,
      "count": 4,
      "max": [
        100,
        7.1586786249289852e-14,
        -1.1898839660968996e-13
      ],
      "min": [
        -100,
        4.383120724552915e-14,
        -200
      ],
      "type": "VEC3"
    },
    {
      "bufferView": 2,
      "byteOffset": 336,
      "componentType": 5126,
      "count": 4,
      "max": [
        -6.9388939039072284e-17,
        1,
        -6.9388939039072284e-17
      ],
      "min": [
        -6.9388958891406985e-17,
        1,
        -6.9388958891406985e-17
      ],
      "type": "VEC3"
    },
    {
      "bufferView": 3,
      "byteOffset": 192,
      "componentType": 5126,
      "count": 4,
      "max": [
        1,
        6.9388958891406985e-17,
        8.3266726846886741e-17,
        1
      ],
      "min": [
        1,
        6.9388939039072284e-17,
        -4.7019729191340642e-40,
        1
      ],
      "type": "VEC4"
    },
    {
      "bufferView": 1,
      "byteOffset": 96,
      "componentType": 5126,
      "count": 4,
      "max": [
        1,
        1
      ],
      "min": [
        0,
        0
      ],
      "type": "VEC2"
    },
    {
      "bufferView": 0,
      "byteOffset": 72,
      "componentType": 5125,
      "count": 6,
      "max": [
        3
      ],
      "min": [
        0
      ],
      "type": "SCALAR"
    },
    {
      "bufferView": 2,
      "byteOffset": 384,
      "componentType": 5126,
      "count": 4,
      "max": [
        100,
        -1.5933247085532683e-14,
        1.0074983627930624e-15
      ],
      "min": [
        -100,
        -4.0913266833664599e-14,
        -200
      ],
      "type": "VEC3"
    },
    {
      "bufferView": 2,
      "byteOffset": 432,
      "componentType": 5126,
      "count": 4,
      "max": [
        -5.5511151231257827e-17,
        1,
        6.9388945656517184e-17
      ],
      "min": [
        -5.5511151231257827e-17,
        1,
        6.9388945656517184e-17
      ],
      "type": "VEC3"
    },
    {
      "bufferView": 3,
      "byteOffset": 256,
      "componentType": 5126,
      "count": 4,
      "max": [
        1,
        5.5511151231257827e-17,
        1.1102230246251565e-16,
        1
      ],
      "min": [
        1,
        5.5511151231257827e-17,
        0,
        1
      ],
      "type": "VEC4"
    },
    {
      "bufferView": 1,
      "byteOffset": 128,
      "componentType": 5126,
      "count": 4,
      "max": [
        1,
        1
      ],
      "min": [
        0,
        0
      ],
      "type": "VEC2"
    },
    {
      "bufferView": 0,
      "byteOffset": 96,
      "componentType": 5125,
      "count": 6,
      "max": [
        3
      ],
      "min": [
        0
      ],
      "type": "SCALAR"
    },
    {
      "bufferView": 2,
      "byteOffset": 480,
      "componentType": 5126,
      "count": 4,
      "max": [
        100,
        1.3073556282417863e-14,
        2.5330235684569574e-14
      ],
      "min": [
        -100,
        -2.5784250426495563e-14,
        -200
      ],
      "type": "VEC3"
    },
    {
      "bufferView": 2,
      "byteOffset": 528,
      "componentType": 5126,
      "count": 4,
      "max": [
        -5.5511151231257827e-17,
        1,
        -1.3877787807814457e-16
      ],
      "min": [
        -5.5511151231257827e-17,
        1,
        -1.3877787807814457e-16
      ],
      "type": "VEC3"
    },
    {
      "bufferView": 3,
      "byteOffset": 320,
      "componentType": 5126,
      "count": 4,
      "max": [
        1,
        5.5511151231257827e-17,
        5.5511151231257827e-17,
        1
      ],
      "min": [
        1,
        5.5511151231257827e-17,
        0,
        1
      ],
      "type": "VEC4"
    },
    {
      "bufferView": 1,
      "byteOffset": 160,
      "componentType": 5126,
      "count": 4,
      "max": [
        1,
        1
      ],
      "min": [
        0,
        0
      ],
      "type": "VEC2"
    },
    {
      "bufferView": 0,
      "byteOffset": 120,
      "componentType": 5125,
      "count": 6,
      "max": [
        3
      ],
      "min": [
        0
      ],
      "type": "SCALAR"
    },
    {
      "bufferView": 4,
      "componentType": 5126,
      "count": 62,
      "max": [
        11.5
      ],
      "min": [
        0
      ],
      "type": "SCALAR"
    },
    {
      "bufferView": 5,
      "componentType": 5126,
      "count": 62,
      "max": [
        0,
        7.1054273576010019e-14,
        -200
      ],
      "min": [
        0,
        1.4210854715202004e-14,
        -200
      ],
      "type": "VEC3"
    },
    {
      "bufferView": 4,
      "byteOffset": 248,
      "componentType": 5126,
      "count": 73,
      "max": [
        11.5
      ],
      "min": [
        0
      ],
      "type": "SCALAR"
    },
    {
      "bufferView": 6,
      "componentType": 5126,
      "count": 73,
      "max": [
        0.70710676908493042,
        0,
        0,
        1
      ],
      "min": [
        0,
        0,
        0,
        0.70710676908493042
      ],
      "type": "VEC4"
    },
    {
      "bufferView": 4,
      "byteOffset": 540,
      "componentType": 5126,
      "count": 63,
      "max": [
        11.399999618530273
      ],
      "min": [
        0
      ],
      "type": "SCALAR"
    },
    {
      "bufferView": 6,
      "byteOffset": 1168,
      "componentType": 5126,
      "count": 63,
      "max": [
        0.70710676908493042,
        0,
        0,
        1
      ],
      "min": [
        0,
        0,
        0,
        0.70710676908493042
      ],
      "type": "VEC4"
    },
    {
      "bufferView": 4,
      "byteOffset": 792,
      "componentType": 5126,
      "count": 167,
      "max": [
        10.899999618530273
      ],
      "min": [
        0
      ],
      "type": "SCALAR"
    },
    {
      "bufferView": 6,
      "byteOffset": 2176,
      "componentType": 5126,
      "count": 167,
      "max": [
        0.5,
        0.70710676908493042,
        0,
        0.70710676908493042
      ],
      "min": [
        -0,
        0.5,
        -0.5,
        0.5
      ],
      "type": "VEC4"
    },
    {
      "bufferView": 4,
      "byteOffset": 1460,
      "componentType": 5126,
      "count": 64,
      "max": [
        11.233333587646484
      ],
      "min": [
        0
      ],
      "type": "SCALAR"
    },
    {
      "bufferView": 6,
      "byteOffset": 4848,
      "componentType": 5126,
      "count": 64,
      "max": [
        0.70710676908493042,
        0.5,
        -0.5,
        0.5
      ],
      "min": [
        0.5,
        4.3297803017132772e-17,
        -0.70710676908493042,
        4.3297803017132772e-17
      ],
      "type": "VEC4"
    },
    {
      "bufferView": 4,
      "byteOffset": 1716,
      "componentType": 5126,
      "count": 63,
      "max": [
        11.066666603088379
      ],
      "min": [
        0
      ],
      "type": "SCALAR"
    },
    {
      "bufferView": 6,
      "byteOffset": 5872,
      "componentType": 5126,
      "count": 63,
      "max": [
        6.1232342629258393e-17,
        1,
        0.70710676908493042,
        8.6595606034265543e-17
      ],
      "min": [
        -8.7157638429412996e-33,
        -0.70710676908493042,
        -0.70522308349609375,
        -8.6595301631800124e-17
      ],
      "type": "VEC4"
    },
    {
      "bufferView": 4,
      "byteOffset": 1968,
      "componentType": 5126,
      "count": 76,
      "max": [
        17.166666030883789
      ],
      "min": [
        0
      ],
      "type": "SCALAR"
    },
    {
      "bufferView": 5,
      "byteOffset": 744,
      "componentType": 5126,
      "count": 76,
      "max": [
        1.7763568394002505e-15,
        100.18816375732422,
        -20
      ],
      "min": [
        -2.1286937463378328e-15,
        100.18816375732422,
        -20
      ],
      "type": "VEC3"
    },
    {
      "bufferView": 4,
      "byteOffset": 2272,
      "componentType": 5126,
      "count": 149,
      "max": [
        17.166666030883789
      ],
      "min": [
        0
      ],
      "type": "SCALAR"
    },
    {
      "bufferView": 6,
      "byteOffset": 6880,
      "componentType": 5126,
      "count": 149,
      "max": [
        0.35355338454246521,
        0.35355338454246521,
        0,
        1
      ],
      "min": [
        0,
        0,
        -0.14644661545753479,
        0.8535534143447876
      ],
      "type": "VEC4"
    },
    {
      "bufferView": 4,
      "byteOffset": 2868,
      "componentType": 5126,
      "count": 254,
      "max": [
        18.966667175292969
      ],
      "min": [
        0
      ],
      "type": "SCALAR"
    },
    {
      "bufferView": 5,
      "byteOffset": 1656,
      "componentType": 5126,
      "count": 254,
      "max": [
        0,
        249.99444580078125,
        0
      ],
      "min": [
        0,
        -222.888427734375,
        0
      ],
      "type": "VEC3"
    },
    {
      "bufferView": 4,
      "byteOffset": 3884,
      "componentType": 5126,
      "count": 85,
      "max": [
        18.966667175292969
      ],
      "min": [
        0
      ],
      "type": "SCALAR"
    },
    {
      "bufferView": 6,
      "byteOffset": 9264,
      "componentType": 5126,
      "count": 85,
      "max": [
        8.2687640861095517e-17,
        0.99949145317077637,
        8.2687640861095517e-17,
        1
      ],
      "min": [
        -8.6580591051786481e-17,
        -0.85735732316970825,
        -8.6580591051786481e-17,
        -0.46517053246498108
      ],
      "type": "VEC4"
    }
  ],
  "animations": [
    {
      "channels": [
        {
          "sampler": 0,
          "target": {
            "node": 13,
            "path": "translation"
          }
        },
        {
          "sampler": 1,
          "target": {
            "node": 13,
            "path": "rotation"
          }
        },
        {
          "sampler": 2,
          "target": {
            "node": 11,
            "path": "rotation"
          }
        },
        {
          "sampler": 3,
          "target": {
            "node": 15,
            "path": "rotation"
          }
        },
        {
          "sampler": 4,
          "target": {
            "node": 17,
            "path": "rotation"
          }
        },
        {
          "sampler": 5,
          "target": {
            "node": 19,
            "path": "rotation"
          }
        },
        {
          "sampler": 6,
          "target": {
            "node": 7,
            "path": "translation"
          }
        },
        {
          "sampler": 7,
          "target": {
            "node": 7,
            "path": "rotation"
          }
        },
        {
          "sampler": 8,
          "target": {
            "node": 5,
            "path": "translation"
          }
        },
        {
          "sampler": 9,
          "target": {
            "node": 5,
            "path": "rotation"
          }
        }
      ],
      "name": "CINEMA_4D_Main",
      "samplers": [
        {
          "input": 30,
          "interpolation": "LINEAR",
          "output": 31
        },
        {
          "input": 32,
          "interpolation": "LINEAR",
          "output": 33
        },
        {
          "input": 34,
          "interpolation": "LINEAR",
          "output": 35
        },
        {
          "input": 36,
          "interpolation": "LINEAR",
          "output": 37
        },
        {
          "input": 38,
          "interpolation": "LINEAR",
          "output": 39
        },
        {
          "input": 40,
          "interpolation": "LINEAR",
          "output": 41
        },
        {
          "input": 42,
          "interpolation": "LINEAR",
          "output": 43
        },
        {
          "input": 44,
          "interpolation": "LINEAR",
          "output": 45
        },
        {
          "input": 46,
          "interpolation": "LINEAR",
          "output": 47
        },
        {
          "input": 48,
          "interpolation": "LINEAR",
          "output": 49
        }
      ]
    }
  ],
  "asset": {
    "extras": {
      "author": "Liam.Gathercole (https://sketchfab.com/Liam.Gathercole)",
      "license": "CC-BY-4.0 (http://creativecommons.org/licenses/by/4.0/)",
      "source": "https://sketchfab.com/3d-models/cube-b62d37f53a0c40169a43396c2a66139f",
      "title": "Cube"
    },
    "generator": "Sketchfab-5.98.0",
    "version": "2.0"
  },
  "bufferViews": [
    {
      "buffer": 0,
      "byteLength": 144,
      "byteOffset": 0,
      "name": "floatBufferViews",
      "target": 34963
    },
    {
      "buffer": 0,
      "byteLength": 192,
      "byteOffset": 144,
      "byteStride": 8,
      "name": "floatBufferViews",
      "target": 34962
    },
    {
      "buffer": 0,
      "byteLength": 576,
      "byteOffset": 336,
      "byteStride": 12,
      "name": "floatBufferViews",
      "target": 34962
    },
    {
      "buffer": 0,
      "byteLength": 384,
      "byteOffset": 912,
      "byteStride": 16,
      "name": "floatBufferViews",
      "target": 34962
    },
    {
      "buffer": 0,
      "byteLength": 4224,
      "byteOffset": 1296,
      "name": "floatBufferViews"
    },
    {
      "buffer": 0,
      "byteLength": 4704,
      "byteOffset": 5520,
      "byteStride": 12,
      "name": "floatBufferViews"
    },
    {
      "buffer": 0,
      "byteLength": 10624,
      "byteOffset": 10224,
      "byteStride": 16,
      "name": "floatBufferViews"
    }
  ],
  "buffers": [
    {
      "byteLength": 20848,
      "uri": "scene.bin"
    }
  ],
  "images": [
    {
      "uri": "textures/OUAT_baseColor.png"
    },
    {
      "uri": "textures/group_logos_1_3_baseColor.png"
    },
    {
      "uri": "textures/gropu_logo_2_4_baseColor.png"
    }
  ],
  "materials": [
    {
      "doubleSided": true,
      "emissiveFactor": [
        0,
        0,
        0
      ],
      "name": "OUAT",
      "pbrMetallicRoughness": {
        "baseColorFactor": [
          1,
          1,
          1,
          1
        ],
        "baseColorTexture": {
          "index": 0,
          "texCoord": 0
        },
        "metallicFactor": 0,
        "roughnessFactor": 0.59999999999999998
      }
    },
    {
      "doubleSided": true,
      "emissiveFactor": [
        0,
        0,
        0
      ],
      "name": "group_logos_1_3",
      "pbrMetallicRoughness": {
        "baseColorFactor": [
          1,
          1,
          1,
          1
        ],
        "baseColorTexture": {
          "index": 1,
          "texCoord": 0
        },
        "metallicFactor": 0,
        "roughnessFactor": 0.59999999999999998
      }
    },
    {
      "doubleSided": true,
      "emissiveFactor": [
        0,
        0,
        0
      ],
      "name": "gropu_logo_2_4",
      "pbrMetallicRoughness": {
        "baseColorFactor": [
          1,
          1,
          1,
          1
        ],
        "baseColorTexture": {
          "index": 2,
          "texCoord": 0
        },
        "metallicFactor": 0,
        "roughnessFactor": 0.59999999999999998
      }
    }
  ],
  "meshes": [
    {
      "name": "bottom_OUAT_0",
      "primitives": [
        {
          "attributes": {
            "NORMAL": 1,
            "POSITION": 0,
            "TANGENT": 2,
            "TEXCOORD_0": 3
          },
          "indices": 4,
          "material": 0,
          "mode": 4
        }
      ]
    },
    {
      "name": "farface_group_logos_1_3_0",
      "primitives": [
        {
          "attributes": {
            "NORMAL": 6,
            "POSITION": 5,
            "TANGENT": 7,
            "TEXCOORD_0": 8
          },
          "indices": 9,
          "material": 1,
          "mode": 4
        }
      ]
    },
    {
      "name": "topflap_OUAT_0",
      "primitives": [
        {
          "attributes": {
            "NORMAL": 11,
            "POSITION": 10,
            "TANGENT": 12,
            "TEXCOORD_0": 13
          },
          "indices": 14,
          "material": 0,
          "mode": 4
        }
      ]
    },
    {
      "name": "leftface_gropu_logo_2_4_0",
      "primitives": [
        {
          "attributes": {
            "NORMAL": 16,
            "POSITION": 15,
            "TANGENT": 17,
            "TEXCOORD_0": 18
          },
          "indices": 19,
          "material": 2,
          "mode": 4
        }
      ]
    },
    {
      "name": "rightface_gropu_logo_2_4_0",
      "primitives": [
        {
          "attributes": {
            "NORMAL": 21,
            "POSITION": 20,
            "TANGENT": 22,
            "TEXCOORD_0": 23
          },
          "indices": 24,
          "material": 2,
          "mode": 4
        }
      ]
    },
    {
      "name": "frontface_group_logos_1_3_0",
      "primitives": [
        {
          "attributes": {
            "NORMAL": 26,
            "POSITION": 25,
            "TANGENT": 27,
            "TEXCOORD_0": 28
          },
          "indices": 29,
          "material": 1,
          "mode": 4
        }
      ]
    }
  ],
  "nodes": [
    {
      "children": [
        1
      ],
      "name": "RootNode (gltf orientation matrix)",
      "rotation": [
        -0.70710678118654746,
        -0,
        -0,
        0.70710678118654757
      ]
    },
    {
      "children": [
        2
      ],
      "name": "RootNode (model correction matrix)"
    },
    {
      "children": [
        3
      ],
      "matrix": [
        1,
        0,
        0,
        0,
        0,
        0,
        1,
        0,
        0,
        -1,
        0,
        0,
        0,
        0,
        0,
        1
      ],
      "name": "672e7d82773a4874a840065884a8ef3a.fbx"
    },
    {
      "children": [
        4
      ],
      "name": ""
    },
    {
      "children": [
        5
      ],
      "name": "RootNode"
    },
    {
      "children": [
        6
      ],
      "name": "box",
      "translation": [
        0,
        -222.888427734375,
        0
      ]
    },
    {
      "children": [
        7
      ],
      "name": "Null",
      "translation": [
        0,
        0,
        20
      ]
    },
    {
      "children": [
        8
      ],
      "name": "Null_2",
      "translation": [
        0,
        100.18816375732422,
        -20
      ]
    },
    {
      "children": [
        9,
        11,
        15,
        17,
        19
      ],
      "name": "Null_3",
      "translation": [
        7.1054273576010019e-15,
        -100.34503173828125,
        8.8817841970012523e-14
      ]
    },
    {
      "children": [
        10
      ],
      "name": "bottom",
      "translation": [
        -1.8055001937966608e-14,
        0.15686875581741333,
        100
      ]
    },
    {
      "mesh": 0,
      "name": "bottom_OUAT_0"
    },
    {
      "children": [
        12,
        13
      ],
      "name": "farface",
      "rotation": [
        0.7071068286895752,
        0,
        0,
        0.7071068286895752
      ],
      "translation": [
        0,
        0,
        -100
      ]
    },
    {
      "mesh": 1,
      "name": "farface_group_logos_1_3_0"
    },
    {
      "children": [
        14
      ],
      "name": "topflap",
      "rotation": [
        0.7071068286895752,
        0,
        0,
        0.7071068286895752
      ],
      "translation": [
        0,
        4.2632564145606011e-14,
        -200
      ]
    },
    {
      "mesh": 2,
      "name": "topflap_OUAT_0"
    },
    {
      "children": [
        16
      ],
      "name": "leftface",
      "rotation": [
        0.5,
        0.5,
        -0.5,
        0.5
      ],
      "translation": [
        -100,
        0,
        0
      ]
    },
    {
      "mesh": 3,
      "name": "leftface_gropu_logo_2_4_0"
    },
    {
      "children": [
        18
      ],
      "name": "rightface",
      "rotation": [
        0.5,
        0.5,
        -0.5,
        0.5
      ],
      "translation": [
        100,
        0,
        0
      ]
    },
    {
      "mesh": 4,
      "name": "rightface_gropu_logo_2_4_0"
    },
    {
      "children": [
        20
      ],
      "name": "frontface",
      "rotation": [
        0,
        -0.7071068286895752,
        0.7071068286895752,
        8.6595619269155344e-17
      ],
      "translation": [
        -2.2204460492503131e-14,
        0.15686875581741333,
        100
      ]
    },
    {
      "mesh": 5,
      "name": "frontface_group_logos_1_3_0"
    }
  ],
  "samplers": [
    {
      "magFilter": 9729,
      "minFilter": 9987,
      "wrapS": 10497,
      "wrapT": 10497
    }
  ],
  "scene": 0,
  "scenes": [
    {
      "name": "OSG_Scene",
      "nodes": [
        0
      ]
    }
  ],
  "textures": [
    {
      "sampler": 0,
      "source": 0
    },
    {
      "sampler": 0,
      "source": 1
    },
    {
      "sampler": 0,
      "source": 2
    }
  ]
}

